<svg xmlns="http://www.w3.org/2000/svg" viewBox="0 0 800 600" role="img">
  <defs>
    <linearGradient id="g3" x1="0" y1="0" x2="1" y2="1">
      <stop offset="0" stop-color="#0d2026"/>
      <stop offset="1" stop-color="#16323a"/>
    </linearGradient>
    <radialGradient id="v3" cx="0.7" cy="0.3" r="0.9">
      <stop offset="0" stop-color="#1f9aa0" stop-opacity="0.10"/>
      <stop offset="1" stop-color="#0d2026" stop-opacity="0"/>
    </radialGradient>
  </defs>
  <rect width="800" height="600" fill="url(#g3)"/>
  <rect width="800" height="600" fill="url(#v3)"/>
  <path d="M-40 82.5 L-12 75.8 L16 68.0 L44 60.6 L72 55.0 L100 52.2 L128 52.8 L156 56.7 L184 63.1 L212 70.8 L240 78.4 L268 84.4 L296 87.6 L324 87.5 L352 84.1 L380 77.9 L408 70.3 L436 62.6 L464 56.3 L492 52.6 L520 52.3 L548 55.3 L576 61.1 L604 68.6 L632 76.4 L660 82.9 L688 87.0 L716 87.9 L744 85.3 L772 79.9 L800 72.5 L828 64.7" fill="none" stroke="#5fd0d4" stroke-width="1.0" stroke-linecap="round" opacity="0.18"/><path d="M-40 108.5 L-12 97.6 L16 88.0 L44 81.5 L72 79.3 L100 81.9 L128 88.7 L156 98.5 L184 109.4 L212 119.4 L240 126.4 L268 129.3 L296 127.4 L324 121.1 L352 111.6 L380 100.7 L408 90.5 L436 82.9 L464 79.4 L492 80.7 L520 86.4 L548 95.5 L576 106.3 L604 116.7 L632 124.8 L660 128.9 L688 128.4 L716 123.2 L744 114.5 L772 103.8 L800 93.2 L828 84.7" fill="none" stroke="#1f9aa0" stroke-width="1.1" stroke-linecap="round" opacity="0.22"/><path d="M-40 125.2 L-12 114.1 L16 107.7 L44 107.1 L72 112.5 L100 122.9 L128 136.3 L156 150.1 L184 161.7 L212 168.9 L240 170.4 L268 165.8 L296 156.0 L324 142.9 L352 129.0 L380 116.9 L408 108.9 L436 106.6 L464 110.4 L492 119.5 L520 132.3 L548 146.2 L576 158.7 L604 167.4 L632 170.6 L660 167.7 L688 159.2 L716 146.8 L744 132.9 L772 120.0 L800 110.7 L828 106.7" fill="none" stroke="#1f9aa0" stroke-width="1.2" stroke-linecap="round" opacity="0.25"/><path d="M-40 139.4 L-12 134.1 L16 136.1 L44 145.1 L72 159.4 L100 176.3 L128 192.5 L156 205.0 L184 211.3 L212 210.4 L240 202.3 L268 188.6 L296 171.9 L324 155.4 L352 142.2 L380 134.9 L408 134.7 L436 141.9 L464 154.9 L492 171.4 L520 188.1 L548 201.9 L576 210.2 L604 211.4 L632 205.3 L660 192.9 L688 176.8 L716 159.9 L744 145.5 L772 136.3 L800 134.0 L828 139.2" fill="none" stroke="#5fd0d4" stroke-width="1.3" stroke-linecap="round" opacity="0.29"/><path d="M-40 161.2 L-12 166.8 L16 180.0 L44 198.4 L72 218.4 L100 236.3 L128 248.7 L156 253.1 L184 248.8 L212 236.6 L240 218.7 L268 198.7 L296 180.2 L324 166.9 L352 161.2 L380 164.3 L408 175.5 L436 192.8 L464 212.7 L492 231.7 L520 245.9 L548 252.8 L576 250.9 L604 240.8 L632 224.2 L660 204.4 L688 185.1 L716 170.0 L744 162.0 L772 162.5 L800 171.6 L828 187.4" fill="none" stroke="#1f9aa0" stroke-width="1.5" stroke-linecap="round" opacity="0.32"/><path d="M-40 227.2 L-12 233.2 L16 240.9 L44 248.6 L72 254.9 L100 258.7 L128 259.2 L156 256.3 L184 250.6 L212 243.1 L240 235.3 L268 228.7 L296 224.5 L324 223.5 L352 225.9 L380 231.3 L408 238.6 L436 246.4 L464 253.3 L492 257.9 L520 259.4 L548 257.5 L576 252.5 L604 245.4 L632 237.5 L660 230.4 L688 225.4 L716 223.4 L744 224.9 L772 229.5 L800 236.4 L828 244.2" fill="none" stroke="#1f9aa0" stroke-width="1.6" stroke-linecap="round" opacity="0.36"/><path d="M-40 268.1 L-12 278.9 L16 289.2 L44 296.9 L72 300.5 L100 299.5 L128 293.9 L156 284.9 L184 274.1 L212 263.6 L240 255.4 L268 251.1 L296 251.5 L324 256.5 L352 265.1 L380 275.8 L408 286.4 L436 295.0 L464 299.9 L492 300.3 L520 295.9 L548 287.7 L576 277.2 L604 266.4 L632 257.4 L660 251.9 L688 250.9 L716 254.6 L744 262.4 L772 272.6 L800 283.5 L828 292.9" fill="none" stroke="#5fd0d4" stroke-width="1.7" stroke-linecap="round" opacity="0.39"/><path d="M-40 319.1 L-12 331.3 L16 339.4 L44 342.0 L72 338.4 L100 329.5 L128 316.8 L156 302.8 L184 290.2 L212 281.4 L240 278.0 L268 280.7 L296 289.0 L324 301.2 L352 315.2 L380 328.1 L408 337.6 L436 341.9 L464 340.0 L492 332.5 L520 320.7 L548 306.8 L576 293.6 L604 283.4 L632 278.4 L660 279.3 L688 286.1 L716 297.5 L744 311.2 L772 324.7 L800 335.4 L828 341.3" fill="none" stroke="#1f9aa0" stroke-width="1.8" stroke-linecap="round" opacity="0.43"/><path d="M-40 374.6 L-12 382.1 L16 382.5 L44 375.6 L72 362.8 L100 346.4 L128 329.6 L156 315.6 L184 307.1 L212 305.6 L240 311.5 L268 323.7 L296 339.7 L324 356.7 L352 371.2 L380 380.7 L408 383.2 L436 378.3 L464 366.9 L492 351.3 L520 334.3 L548 319.2 L576 308.9 L604 305.3 L632 309.1 L660 319.7 L688 334.9 L716 351.9 L744 367.5 L772 378.6 L800 383.2 L828 380.4" fill="none" stroke="#1f9aa0" stroke-width="1.9" stroke-linecap="round" opacity="0.47"/><path d="M-40 424.4 L-12 421.7 L16 410.7 L44 393.6 L72 373.7 L100 354.7 L128 340.2 L156 333.1 L184 334.6 L212 344.4 L240 360.8 L268 380.6 L296 399.9 L324 415.3 L352 423.6 L380 423.3 L408 414.6 L436 399.0 L464 379.5 L492 359.8 L520 343.7 L548 334.2 L576 333.2 L604 340.8 L632 355.6 L660 374.8 L688 394.7 L716 411.5 L744 422.0 L772 424.3 L800 417.9 L828 404.0" fill="none" stroke="#5fd0d4" stroke-width="2.0" stroke-linecap="round" opacity="0.50"/><path d="M-40 428.5 L-12 423.2 L16 416.0 L44 408.1 L72 401.2 L100 396.5 L128 394.9 L156 396.7 L184 401.6 L212 408.6 L240 416.5 L268 423.7 L296 428.8 L324 430.8 L352 429.5 L380 425.0 L408 418.2 L436 410.3 L464 403.0 L492 397.5 L520 395.0 L548 395.8 L576 399.9 L604 406.5 L632 414.3 L660 421.8 L688 427.6 L716 430.6 L744 430.2 L772 426.6 L800 420.3 L828 412.6" fill="none" stroke="#1f9aa0" stroke-width="2.1" stroke-linecap="round" opacity="0.54"/><path d="M-40 458.1 L-12 447.5 L16 436.8 L44 428.1 L72 423.0 L100 422.5 L128 426.7 L156 434.8 L184 445.2 L212 456.0 L240 465.1 L268 470.8 L296 472.0 L324 468.4 L352 460.8 L380 450.6 L408 439.7 L436 430.3 L464 424.0 L492 422.2 L520 425.1 L548 432.2 L576 442.1 L604 453.0 L632 462.8 L660 469.6 L688 472.1 L716 469.9 L744 463.3 L772 453.7 L800 442.8 L828 432.7" fill="none" stroke="#1f9aa0" stroke-width="2.3" stroke-linecap="round" opacity="0.57"/><path d="M-40 476.7 L-12 463.7 L16 454.1 L44 449.6 L72 451.2 L100 458.6 L128 470.3 L156 484.1 L184 497.4 L212 507.7 L240 513.0 L268 512.2 L296 505.6 L324 494.4 L352 480.7 L380 467.2 L408 456.3 L436 450.3 L464 450.1 L492 455.9 L520 466.6 L548 480.1 L576 493.8 L604 505.2 L632 512.1 L660 513.1 L688 508.1 L716 498.0 L744 484.8 L772 470.9 L800 459.0 L828 451.4" fill="none" stroke="#5fd0d4" stroke-width="2.4" stroke-linecap="round" opacity="0.61"/><path d="M-40 489.2 L-12 479.6 L16 476.8 L44 481.4 L72 492.6 L100 508.1 L128 525.1 L156 540.4 L184 550.9 L212 554.7 L240 551.1 L268 540.8 L296 525.7 L324 508.7 L352 493.0 L380 481.7 L408 476.8 L436 479.4 L464 488.8 L492 503.4 L520 520.3 L548 536.4 L576 548.5 L604 554.4 L632 552.9 L660 544.3 L688 530.3 L716 513.5 L744 497.2 L772 484.3 L800 477.5 L828 477.9" fill="none" stroke="#1f9aa0" stroke-width="2.5" stroke-linecap="round" opacity="0.64"/>
  <circle cx="228" cy="274" r="4" fill="#5fd0d4" opacity="0.5"/><circle cx="488" cy="385" r="3" fill="#5fd0d4" opacity="0.5"/><circle cx="550" cy="491" r="2" fill="#5fd0d4" opacity="0.5"/><circle cx="546" cy="473" r="4" fill="#5fd0d4" opacity="0.5"/><circle cx="247" cy="318" r="4" fill="#5fd0d4" opacity="0.5"/><circle cx="301" cy="463" r="2" fill="#5fd0d4" opacity="0.5"/>
</svg>