<svg xmlns="http://www.w3.org/2000/svg" viewBox="0 0 800 600" role="img">
  <defs>
    <linearGradient id="g1" x1="0" y1="0" x2="1" y2="1">
      <stop offset="0" stop-color="#0b1b20"/>
      <stop offset="1" stop-color="#16323a"/>
    </linearGradient>
    <radialGradient id="v1" cx="0.7" cy="0.3" r="0.9">
      <stop offset="0" stop-color="#1f9aa0" stop-opacity="0.10"/>
      <stop offset="1" stop-color="#0b1b20" stop-opacity="0"/>
    </radialGradient>
  </defs>
  <rect width="800" height="600" fill="url(#g1)"/>
  <rect width="800" height="600" fill="url(#v1)"/>
  <path d="M-40 76.5 L-12 83.1 L16 87.1 L44 87.9 L72 85.2 L100 79.7 L128 72.4 L156 64.5 L184 57.7 L212 53.3 L240 52.0 L268 54.2 L296 59.3 L324 66.5 L352 74.4 L380 81.4 L408 86.2 L436 88.0 L464 86.3 L492 81.5 L520 74.6 L548 66.7 L576 59.5 L604 54.3 L632 52.0 L660 53.2 L688 57.6 L716 64.3 L744 72.2 L772 79.6 L800 85.1 L828 87.8" fill="none" stroke="#5fd0d4" stroke-width="1.0" stroke-linecap="round" opacity="0.18"/><path d="M-40 124.9 L-12 129.0 L16 128.3 L44 123.1 L72 114.3 L100 103.6 L128 93.0 L156 84.6 L184 79.9 L212 79.9 L240 84.5 L268 92.9 L296 103.4 L324 114.2 L352 123.0 L380 128.3 L408 129.0 L436 125.0 L464 117.1 L492 106.7 L520 95.9 L548 86.6 L576 80.8 L604 79.4 L632 82.7 L660 90.2 L688 100.3 L716 111.2 L744 120.8 L772 127.2 L800 129.3 L828 126.6" fill="none" stroke="#1f9aa0" stroke-width="1.1" stroke-linecap="round" opacity="0.22"/><path d="M-40 170.6 L-12 167.5 L16 158.9 L44 146.5 L72 132.5 L100 119.7 L128 110.5 L156 106.6 L184 108.8 L212 116.7 L240 128.7 L268 142.6 L296 155.7 L324 165.6 L352 170.3 L380 169.0 L408 161.9 L436 150.3 L464 136.5 L492 123.1 L520 112.7 L548 107.1 L576 107.6 L604 113.9 L632 125.0 L660 138.6 L688 152.2 L716 163.2 L744 169.6 L772 170.0 L800 164.4 L828 154.0" fill="none" stroke="#1f9aa0" stroke-width="1.2" stroke-linecap="round" opacity="0.25"/><path d="M-40 205.0 L-12 192.6 L16 176.4 L44 159.5 L72 145.2 L100 136.1 L128 134.0 L156 139.4 L184 151.1 L212 166.9 L240 183.9 L268 198.8 L296 208.7 L324 211.8 L352 207.5 L380 196.6 L408 181.2 L436 164.2 L464 148.8 L492 138.0 L520 133.9 L548 137.1 L576 147.2 L604 162.1 L632 179.1 L660 194.9 L688 206.5 L716 211.7 L744 209.5 L772 200.3 L800 185.9 L828 169.0" fill="none" stroke="#5fd0d4" stroke-width="1.3" stroke-linecap="round" opacity="0.29"/><path d="M-40 223.8 L-12 203.9 L16 184.7 L44 169.7 L72 161.9 L100 162.7 L128 171.9 L156 187.9 L184 207.5 L212 227.0 L240 242.8 L268 251.8 L296 252.3 L324 244.2 L352 229.0 L380 209.7 L408 189.9 L436 173.4 L464 163.3 L492 161.5 L520 168.5 L548 182.8 L576 201.7 L604 221.7 L632 238.9 L660 250.0 L688 253.0 L716 247.3 L744 233.9 L772 215.4 L800 195.4 L828 177.6" fill="none" stroke="#1f9aa0" stroke-width="1.5" stroke-linecap="round" opacity="0.32"/><path d="M-40 237.3 L-12 230.3 L16 225.3 L44 223.4 L72 225.0 L100 229.7 L128 236.6 L156 244.4 L184 251.7 L212 257.0 L240 259.4 L268 258.3 L296 254.0 L324 247.4 L352 239.6 L380 232.1 L408 226.4 L436 223.6 L464 224.2 L492 228.0 L520 234.4 L548 242.2 L576 249.8 L604 255.8 L632 259.0 L660 259.0 L688 255.5 L716 249.4 L744 241.8 L772 234.1 L800 227.8 L828 224.1" fill="none" stroke="#1f9aa0" stroke-width="1.6" stroke-linecap="round" opacity="0.36"/><path d="M-40 257.3 L-12 251.8 L16 251.0 L44 254.8 L72 262.6 L100 272.9 L128 283.8 L156 293.1 L184 299.1 L212 300.6 L240 297.5 L268 290.1 L296 280.1 L324 269.2 L352 259.5 L380 253.0 L408 250.7 L436 253.2 L464 260.0 L492 269.8 L520 280.7 L548 290.7 L576 297.8 L604 300.7 L632 298.8 L660 292.6 L688 283.1 L716 272.3 L744 262.0 L772 254.4 L800 250.9 L828 252.0" fill="none" stroke="#5fd0d4" stroke-width="1.7" stroke-linecap="round" opacity="0.39"/><path d="M-40 278.3 L-12 279.4 L16 286.3 L44 297.8 L72 311.5 L100 325.0 L128 335.6 L156 341.3 L184 341.1 L212 335.0 L240 324.1 L268 310.5 L296 296.8 L324 285.7 L352 279.1 L380 278.5 L408 283.8 L436 294.2 L464 307.5 L492 321.3 L520 333.0 L548 340.3 L576 341.8 L604 337.3 L632 327.6 L660 314.5 L688 300.6 L716 288.4 L744 280.4 L772 278.0 L800 281.7 L828 290.8" fill="none" stroke="#1f9aa0" stroke-width="1.8" stroke-linecap="round" opacity="0.43"/><path d="M-40 309.3 L-12 320.0 L16 335.3 L44 352.3 L72 367.8 L100 378.8 L128 383.2 L156 380.3 L184 370.4 L212 355.6 L240 338.6 L268 322.8 L296 311.0 L324 305.5 L352 307.4 L380 316.4 L408 330.6 L436 347.5 L464 363.7 L492 376.3 L520 382.7 L548 381.9 L576 373.8 L604 360.2 L632 343.5 L660 327.0 L688 313.8 L716 306.3 L744 306.1 L772 313.2 L800 326.2 L828 342.6" fill="none" stroke="#1f9aa0" stroke-width="1.9" stroke-linecap="round" opacity="0.47"/><path d="M-40 356.1 L-12 375.3 L16 395.1 L44 411.8 L72 422.2 L100 424.3 L128 417.6 L156 403.6 L184 384.7 L212 364.7 L240 347.4 L268 336.0 L296 332.6 L324 338.1 L352 351.2 L380 369.6 L408 389.6 L436 407.6 L464 420.0 L492 424.6 L520 420.4 L548 408.2 L576 390.4 L604 370.4 L632 351.9 L660 338.5 L688 332.7 L716 335.7 L744 346.8 L772 364.0 L800 383.9 L828 402.9" fill="none" stroke="#5fd0d4" stroke-width="2.0" stroke-linecap="round" opacity="0.50"/><path d="M-40 414.4 L-12 421.9 L16 427.7 L44 430.6 L72 430.2 L100 426.4 L128 420.1 L156 412.4 L184 404.8 L212 398.7 L240 395.3 L268 395.3 L296 398.6 L324 404.6 L352 412.2 L380 419.9 L408 426.3 L436 430.1 L464 430.7 L492 427.8 L520 422.1 L548 414.7 L576 406.9 L604 400.2 L632 396.0 L660 394.9 L688 397.3 L716 402.7 L744 409.9 L772 417.8 L800 424.7 L828 429.3" fill="none" stroke="#1f9aa0" stroke-width="2.1" stroke-linecap="round" opacity="0.54"/><path d="M-40 463.0 L-12 469.7 L16 472.1 L44 469.8 L72 463.1 L100 453.4 L128 442.5 L156 432.5 L184 425.3 L212 422.2 L240 423.9 L268 430.0 L296 439.4 L324 450.2 L352 460.5 L380 468.2 L408 471.9 L436 470.9 L464 465.4 L492 456.4 L520 445.6 L548 435.2 L576 427.0 L604 422.6 L632 422.9 L660 427.8 L688 436.4 L716 447.1 L744 457.7 L772 466.4 L800 471.3 L828 471.7" fill="none" stroke="#1f9aa0" stroke-width="2.3" stroke-linecap="round" opacity="0.57"/><path d="M-40 512.2 L-12 513.0 L16 507.9 L44 497.7 L72 484.4 L100 470.6 L128 458.8 L156 451.3 L184 449.6 L212 453.9 L240 463.5 L268 476.4 L296 490.4 L324 502.6 L352 510.8 L380 513.4 L408 509.9 L436 501.0 L464 488.4 L492 474.4 L520 461.8 L548 452.9 L576 449.4 L604 452.1 L632 460.3 L660 472.5 L688 486.4 L716 499.4 L744 509.0 L772 513.3 L800 511.5 L828 504.0" fill="none" stroke="#5fd0d4" stroke-width="2.4" stroke-linecap="round" opacity="0.61"/><path d="M-40 552.8 L-12 544.0 L16 529.9 L44 513.1 L72 496.8 L100 484.1 L128 477.4 L156 478.0 L184 485.8 L212 499.2 L240 515.9 L268 532.4 L296 545.9 L324 553.5 L352 554.0 L380 547.2 L408 534.4 L436 518.0 L464 501.2 L492 487.2 L520 478.6 L548 477.0 L576 482.9 L604 494.9 L632 511.0 L660 527.9 L688 542.5 L716 552.0 L744 554.6 L772 549.8 L800 538.5 L828 522.9" fill="none" stroke="#1f9aa0" stroke-width="2.5" stroke-linecap="round" opacity="0.64"/>
  <circle cx="391" cy="137" r="3" fill="#5fd0d4" opacity="0.5"/><circle cx="726" cy="84" r="2" fill="#5fd0d4" opacity="0.5"/><circle cx="608" cy="108" r="3" fill="#5fd0d4" opacity="0.5"/><circle cx="656" cy="89" r="4" fill="#5fd0d4" opacity="0.5"/><circle cx="279" cy="79" r="2" fill="#5fd0d4" opacity="0.5"/><circle cx="504" cy="274" r="2" fill="#5fd0d4" opacity="0.5"/>
</svg>