<svg xmlns="http://www.w3.org/2000/svg" viewBox="0 0 800 600" role="img">
  <defs>
    <linearGradient id="g4" x1="0" y1="0" x2="1" y2="1">
      <stop offset="0" stop-color="#16323a"/>
      <stop offset="1" stop-color="#0b1b20"/>
    </linearGradient>
    <radialGradient id="v4" cx="0.7" cy="0.3" r="0.9">
      <stop offset="0" stop-color="#5fd0d4" stop-opacity="0.10"/>
      <stop offset="1" stop-color="#16323a" stop-opacity="0"/>
    </radialGradient>
  </defs>
  <rect width="800" height="600" fill="url(#g4)"/>
  <rect width="800" height="600" fill="url(#v4)"/>
  <path d="M-40 65.9 L-12 58.8 L16 53.9 L44 52.0 L72 53.6 L100 58.2 L128 65.2 L156 73.0 L184 80.3 L212 85.6 L240 87.9 L268 86.9 L296 82.6 L324 75.9 L352 68.1 L380 60.7 L408 55.0 L436 52.2 L464 52.8 L492 56.6 L520 63.0 L548 70.7 L576 78.3 L604 84.3 L632 87.6 L660 87.5 L688 84.1 L716 78.0 L744 70.4 L772 62.7 L800 56.4 L828 52.7" fill="none" stroke="#1f9aa0" stroke-width="1.0" stroke-linecap="round" opacity="0.18"/><path d="M-40 85.8 L-12 80.4 L16 79.5 L44 83.4 L72 91.2 L100 101.5 L128 112.3 L156 121.6 L184 127.7 L212 129.2 L240 126.0 L268 118.7 L296 108.6 L324 97.7 L352 88.1 L380 81.5 L408 79.3 L436 81.8 L464 88.6 L492 98.4 L520 109.3 L548 119.2 L576 126.4 L604 129.3 L632 127.4 L660 121.2 L688 111.7 L716 100.8 L744 90.6 L772 83.0 L800 79.4 L828 80.6" fill="none" stroke="#5fd0d4" stroke-width="1.1" stroke-linecap="round" opacity="0.22"/><path d="M-40 106.9 L-12 108.0 L16 114.9 L44 126.3 L72 140.1 L100 153.6 L128 164.2 L156 169.9 L184 169.7 L212 163.5 L240 152.6 L268 139.1 L296 125.4 L324 114.2 L352 107.7 L380 107.1 L408 112.4 L436 122.7 L464 136.1 L492 149.9 L520 161.6 L548 168.9 L576 170.4 L604 165.8 L632 156.1 L660 143.1 L688 129.1 L716 117.0 L744 109.0 L772 106.6 L800 110.3 L828 119.4" fill="none" stroke="#5fd0d4" stroke-width="1.2" stroke-linecap="round" opacity="0.25"/><path d="M-40 137.9 L-12 148.6 L16 163.9 L44 180.9 L72 196.4 L100 207.4 L128 211.8 L156 208.8 L184 199.0 L212 184.2 L240 167.2 L268 151.3 L296 139.5 L324 134.1 L352 136.0 L380 145.0 L408 159.2 L436 176.1 L464 192.3 L492 204.8 L520 211.3 L548 210.4 L576 202.4 L604 188.8 L632 172.1 L660 155.6 L688 142.3 L716 134.9 L744 134.7 L772 141.8 L800 154.7 L828 171.2" fill="none" stroke="#1f9aa0" stroke-width="1.3" stroke-linecap="round" opacity="0.29"/><path d="M-40 184.6 L-12 203.8 L16 223.7 L44 240.4 L72 250.8 L100 252.8 L128 246.2 L156 232.1 L184 213.3 L212 193.3 L240 176.0 L268 164.5 L296 161.2 L324 166.6 L352 179.8 L380 198.1 L408 218.2 L436 236.1 L464 248.6 L492 253.1 L520 248.9 L548 236.8 L576 219.0 L604 198.9 L632 180.4 L660 167.0 L688 161.3 L716 164.2 L744 175.4 L772 192.5 L800 212.5 L828 231.4" fill="none" stroke="#5fd0d4" stroke-width="1.5" stroke-linecap="round" opacity="0.32"/><path d="M-40 243.0 L-12 250.5 L16 256.3 L44 259.2 L72 258.7 L100 255.0 L128 248.7 L156 241.0 L184 233.3 L212 227.3 L240 223.9 L268 223.8 L296 227.1 L324 233.2 L352 240.8 L380 248.5 L408 254.9 L436 258.7 L464 259.2 L492 256.4 L520 250.7 L548 243.2 L576 235.4 L604 228.8 L632 224.5 L660 223.5 L688 225.9 L716 231.2 L744 238.5 L772 246.4 L800 253.3 L828 257.9" fill="none" stroke="#5fd0d4" stroke-width="1.6" stroke-linecap="round" opacity="0.36"/><path d="M-40 291.6 L-12 298.3 L16 300.7 L44 298.4 L72 291.7 L100 282.0 L128 271.1 L156 261.1 L184 253.8 L212 250.8 L240 252.4 L268 258.6 L296 267.9 L324 278.8 L352 289.1 L380 296.8 L408 300.5 L436 299.5 L464 294.0 L492 285.0 L520 274.2 L548 263.7 L576 255.5 L604 251.2 L632 251.5 L660 256.4 L688 265.0 L716 275.6 L744 286.3 L772 294.9 L800 299.9 L828 300.3" fill="none" stroke="#1f9aa0" stroke-width="1.7" stroke-linecap="round" opacity="0.39"/><path d="M-40 340.7 L-12 341.6 L16 336.5 L44 326.3 L72 313.0 L100 299.1 L128 287.4 L156 279.9 L184 278.1 L212 282.5 L240 292.0 L268 305.0 L296 318.9 L324 331.2 L352 339.4 L380 342.0 L408 338.5 L436 329.6 L464 317.0 L492 303.0 L520 290.4 L548 281.5 L576 278.0 L604 280.6 L632 288.8 L660 301.1 L688 315.0 L716 328.0 L744 337.6 L772 341.9 L800 340.1 L828 332.6" fill="none" stroke="#5fd0d4" stroke-width="1.8" stroke-linecap="round" opacity="0.43"/><path d="M-40 381.3 L-12 372.6 L16 358.5 L44 341.7 L72 325.4 L100 312.7 L128 306.0 L156 306.5 L184 314.3 L212 327.8 L240 344.4 L268 361.0 L296 374.4 L324 382.1 L352 382.6 L380 375.8 L408 363.0 L436 346.6 L464 329.8 L492 315.8 L520 307.2 L548 305.6 L576 311.4 L604 323.5 L632 339.5 L660 356.5 L688 371.1 L716 380.6 L744 383.2 L772 378.4 L800 367.1 L828 351.5" fill="none" stroke="#5fd0d4" stroke-width="1.9" stroke-linecap="round" opacity="0.47"/><path d="M-40 406.5 L-12 388.3 L16 368.2 L44 350.1 L72 337.4 L100 332.6 L128 336.5 L156 348.4 L184 366.0 L212 386.1 L240 404.7 L268 418.3 L296 424.4 L324 421.7 L352 410.9 L380 393.9 L408 373.9 L436 354.9 L464 340.4 L492 333.1 L520 334.5 L548 344.3 L576 360.6 L604 380.3 L632 399.7 L660 415.1 L688 423.5 L716 423.4 L744 414.7 L772 399.2 L800 379.7 L828 360.0" fill="none" stroke="#1f9aa0" stroke-width="2.0" stroke-linecap="round" opacity="0.50"/><path d="M-40 413.8 L-12 406.1 L16 399.6 L44 395.7 L72 395.0 L100 397.8 L128 403.4 L156 410.8 L184 418.6 L212 425.3 L240 429.7 L268 430.8 L296 428.5 L324 423.3 L352 416.1 L380 408.2 L408 401.2 L436 396.5 L464 394.9 L492 396.6 L520 401.5 L548 408.6 L576 416.4 L604 423.6 L632 428.7 L660 430.8 L688 429.5 L716 425.1 L744 418.3 L772 410.4 L800 403.1 L828 397.6" fill="none" stroke="#5fd0d4" stroke-width="2.1" stroke-linecap="round" opacity="0.54"/><path d="M-40 434.1 L-12 426.3 L16 422.4 L44 423.2 L72 428.6 L100 437.5 L128 448.2 L156 458.8 L184 467.1 L212 471.6 L240 471.5 L268 466.7 L296 458.2 L324 447.6 L352 436.9 L380 428.2 L408 423.0 L436 422.5 L464 426.6 L492 434.7 L520 445.1 L548 455.9 L576 465.0 L604 470.8 L632 472.0 L660 468.5 L688 460.9 L716 450.7 L744 439.9 L772 430.4 L800 424.1 L828 422.2" fill="none" stroke="#5fd0d4" stroke-width="2.3" stroke-linecap="round" opacity="0.57"/><path d="M-40 452.3 L-12 449.4 L16 452.7 L44 461.4 L72 474.0 L100 487.9 L128 500.6 L156 509.7 L184 513.4 L212 511.0 L240 503.0 L268 490.8 L296 476.9 L324 463.9 L352 454.1 L380 449.6 L408 451.2 L436 458.5 L464 470.1 L492 483.9 L520 497.3 L548 507.6 L576 513.0 L604 512.3 L632 505.8 L660 494.6 L688 480.9 L716 467.3 L744 456.5 L772 450.3 L800 450.1 L828 455.8" fill="none" stroke="#1f9aa0" stroke-width="2.4" stroke-linecap="round" opacity="0.61"/><path d="M-40 477.3 L-12 483.9 L16 496.5 L44 512.8 L72 529.6 L100 543.8 L128 552.7 L156 554.5 L184 548.9 L212 537.0 L240 521.1 L268 504.1 L296 489.4 L324 479.6 L352 476.8 L380 481.3 L408 492.4 L436 507.9 L464 524.9 L492 540.2 L520 550.8 L548 554.7 L576 551.2 L604 540.9 L632 525.9 L660 508.9 L688 493.2 L716 481.8 L744 476.8 L772 479.3 L800 488.7 L828 503.2" fill="none" stroke="#5fd0d4" stroke-width="2.5" stroke-linecap="round" opacity="0.64"/>
  <circle cx="175" cy="440" r="2" fill="#1f9aa0" opacity="0.5"/><circle cx="618" cy="365" r="4" fill="#1f9aa0" opacity="0.5"/><circle cx="242" cy="175" r="2" fill="#1f9aa0" opacity="0.5"/><circle cx="713" cy="297" r="3" fill="#1f9aa0" opacity="0.5"/><circle cx="275" cy="169" r="2" fill="#1f9aa0" opacity="0.5"/><circle cx="461" cy="143" r="2" fill="#1f9aa0" opacity="0.5"/>
</svg>