<svg xmlns="http://www.w3.org/2000/svg" viewBox="0 0 800 600" role="img">
  <defs>
    <linearGradient id="g2" x1="0" y1="0" x2="1" y2="1">
      <stop offset="0" stop-color="#102830"/>
      <stop offset="1" stop-color="#0b1b20"/>
    </linearGradient>
    <radialGradient id="v2" cx="0.7" cy="0.3" r="0.9">
      <stop offset="0" stop-color="#5fd0d4" stop-opacity="0.10"/>
      <stop offset="1" stop-color="#102830" stop-opacity="0"/>
    </radialGradient>
  </defs>
  <rect width="800" height="600" fill="url(#g2)"/>
  <rect width="800" height="600" fill="url(#v2)"/>
  <path d="M-40 87.6 L-12 87.5 L16 84.0 L44 77.8 L72 70.2 L100 62.5 L128 56.3 L156 52.6 L184 52.3 L212 55.3 L240 61.2 L268 68.7 L296 76.4 L324 83.0 L352 87.1 L380 87.9 L408 85.3 L436 79.8 L464 72.4 L492 64.6 L520 57.8 L548 53.3 L576 52.0 L604 54.1 L632 59.3 L660 66.4 L688 74.3 L716 81.3 L744 86.2 L772 88.0 L800 86.4 L828 81.6" fill="none" stroke="#1f9aa0" stroke-width="1.0" stroke-linecap="round" opacity="0.18"/><path d="M-40 127.3 L-12 121.0 L16 111.4 L44 100.6 L72 90.4 L100 82.9 L128 79.4 L156 80.7 L184 86.5 L212 95.6 L240 106.5 L268 116.8 L296 124.9 L324 128.9 L352 128.3 L380 123.2 L408 114.4 L436 103.7 L464 93.1 L492 84.6 L520 79.9 L548 79.8 L576 84.4 L604 92.8 L632 103.3 L660 114.0 L688 122.9 L716 128.2 L744 129.0 L772 125.1 L800 117.2 L828 106.8" fill="none" stroke="#5fd0d4" stroke-width="1.1" stroke-linecap="round" opacity="0.22"/><path d="M-40 155.8 L-12 142.7 L16 128.8 L44 116.8 L72 108.9 L100 106.6 L128 110.5 L156 119.6 L184 132.4 L212 146.4 L240 158.9 L268 167.5 L296 170.6 L324 167.6 L352 159.1 L380 146.7 L408 132.7 L436 119.9 L464 110.6 L492 106.6 L520 108.8 L548 116.6 L576 128.5 L604 142.4 L632 155.6 L660 165.5 L688 170.3 L716 169.0 L744 162.0 L772 150.5 L800 136.7 L828 123.3" fill="none" stroke="#5fd0d4" stroke-width="1.2" stroke-linecap="round" opacity="0.25"/><path d="M-40 171.7 L-12 155.2 L16 142.1 L44 134.8 L72 134.8 L100 142.0 L128 155.1 L156 171.6 L184 188.3 L212 202.1 L240 210.3 L268 211.4 L296 205.1 L324 192.8 L352 176.6 L380 159.7 L408 145.3 L436 136.2 L464 134.0 L492 139.3 L520 150.9 L548 166.7 L576 183.7 L604 198.6 L632 208.6 L660 211.8 L688 207.6 L716 196.8 L744 181.4 L772 164.4 L800 149.0 L828 138.1" fill="none" stroke="#1f9aa0" stroke-width="1.3" stroke-linecap="round" opacity="0.29"/><path d="M-40 180.0 L-12 166.8 L16 161.2 L44 164.4 L72 175.7 L100 193.0 L128 213.0 L156 231.9 L184 246.0 L212 252.8 L240 250.9 L268 240.6 L296 224.0 L324 204.2 L352 184.9 L380 169.9 L408 161.9 L436 162.6 L464 171.8 L492 187.6 L520 207.2 L548 226.8 L576 242.6 L604 251.7 L632 252.3 L660 244.3 L688 229.2 L716 209.9 L744 190.1 L772 173.6 L800 163.4 L828 161.5" fill="none" stroke="#5fd0d4" stroke-width="1.5" stroke-linecap="round" opacity="0.32"/><path d="M-40 224.5 L-12 223.5 L16 226.0 L44 231.4 L72 238.7 L100 246.5 L128 253.4 L156 258.0 L184 259.4 L212 257.4 L240 252.4 L268 245.3 L296 237.4 L324 230.3 L352 225.4 L380 223.4 L408 224.9 L436 229.6 L464 236.5 L492 244.3 L520 251.6 L548 257.0 L576 259.4 L604 258.3 L632 254.1 L660 247.4 L688 239.6 L716 232.2 L744 226.5 L772 223.6 L800 224.2 L828 228.0" fill="none" stroke="#5fd0d4" stroke-width="1.6" stroke-linecap="round" opacity="0.36"/><path d="M-40 251.5 L-12 256.6 L16 265.3 L44 275.9 L72 286.5 L100 295.1 L128 300.0 L156 300.2 L184 295.8 L212 287.6 L240 277.1 L268 266.3 L296 257.4 L324 251.9 L352 250.9 L380 254.7 L408 262.5 L436 272.8 L464 283.6 L492 293.0 L520 299.0 L548 300.7 L576 297.5 L604 290.2 L632 280.2 L660 269.3 L688 259.6 L716 253.0 L744 250.7 L772 253.2 L800 259.9 L828 269.7" fill="none" stroke="#1f9aa0" stroke-width="1.7" stroke-linecap="round" opacity="0.39"/><path d="M-40 289.1 L-12 301.4 L16 315.4 L44 328.3 L72 337.7 L100 341.9 L128 340.0 L156 332.4 L184 320.5 L212 306.6 L240 293.4 L268 283.3 L296 278.3 L324 279.4 L352 286.2 L380 297.6 L408 311.4 L436 324.8 L464 335.5 L492 341.3 L520 341.2 L548 335.1 L576 324.2 L604 310.7 L632 297.0 L660 285.8 L688 279.2 L716 278.5 L744 283.7 L772 294.0 L800 307.3 L828 321.2" fill="none" stroke="#5fd0d4" stroke-width="1.8" stroke-linecap="round" opacity="0.43"/><path d="M-40 339.9 L-12 356.9 L16 371.4 L44 380.7 L72 383.2 L100 378.2 L128 366.8 L156 351.1 L184 334.1 L212 319.0 L240 308.8 L268 305.3 L296 309.2 L324 319.9 L352 335.1 L380 352.1 L408 367.7 L436 378.7 L464 383.2 L492 380.3 L520 370.6 L548 355.8 L576 338.9 L604 322.9 L632 311.1 L660 305.5 L688 307.4 L716 316.2 L744 330.4 L772 347.3 L800 363.6 L828 376.2" fill="none" stroke="#5fd0d4" stroke-width="1.9" stroke-linecap="round" opacity="0.47"/><path d="M-40 400.2 L-12 415.4 L16 423.6 L44 423.3 L72 414.4 L100 398.7 L128 379.2 L156 359.6 L184 343.5 L212 334.2 L240 333.3 L268 341.0 L296 355.8 L324 375.0 L352 394.9 L380 411.7 L408 422.1 L436 424.3 L464 417.8 L492 403.8 L520 385.0 L548 365.0 L576 347.6 L604 336.0 L632 332.6 L660 338.0 L688 351.0 L716 369.3 L744 389.4 L772 407.4 L800 419.9 L828 424.6" fill="none" stroke="#1f9aa0" stroke-width="2.0" stroke-linecap="round" opacity="0.50"/><path d="M-40 428.8 L-12 430.8 L16 429.5 L44 424.9 L72 418.1 L100 410.2 L128 402.9 L156 397.5 L184 395.0 L212 395.9 L240 400.0 L268 406.6 L296 414.4 L324 421.8 L352 427.6 L380 430.6 L408 430.2 L436 426.5 L464 420.2 L492 412.5 L520 404.9 L548 398.8 L576 395.3 L604 395.2 L632 398.5 L660 404.5 L688 412.1 L716 419.8 L744 426.2 L772 430.1 L800 430.7 L828 427.9" fill="none" stroke="#5fd0d4" stroke-width="2.1" stroke-linecap="round" opacity="0.54"/><path d="M-40 472.0 L-12 468.4 L16 460.7 L44 450.5 L72 439.6 L100 430.2 L128 424.0 L156 422.2 L184 425.1 L212 432.3 L240 442.3 L268 453.2 L296 462.9 L324 469.7 L352 472.1 L380 469.8 L408 463.2 L436 453.6 L464 442.7 L492 432.6 L520 425.3 L548 422.2 L576 423.8 L604 429.9 L632 439.2 L660 450.1 L688 460.4 L716 468.1 L744 471.9 L772 471.0 L800 465.5 L828 456.5" fill="none" stroke="#5fd0d4" stroke-width="2.3" stroke-linecap="round" opacity="0.57"/><path d="M-40 505.5 L-12 494.3 L16 480.6 L44 467.0 L72 456.2 L100 450.2 L128 450.2 L156 456.0 L184 466.8 L212 480.3 L240 494.0 L268 505.3 L296 512.1 L324 513.1 L352 508.0 L380 497.9 L408 484.6 L436 470.7 L464 458.9 L492 451.4 L520 449.6 L548 453.8 L576 463.3 L604 476.3 L632 490.2 L660 502.5 L688 510.7 L716 513.4 L744 510.0 L772 501.2 L800 488.6 L828 474.6" fill="none" stroke="#1f9aa0" stroke-width="2.4" stroke-linecap="round" opacity="0.61"/><path d="M-40 525.5 L-12 508.5 L16 492.8 L44 481.6 L72 476.8 L100 479.4 L128 489.0 L156 503.6 L184 520.5 L212 536.6 L240 548.6 L268 554.4 L296 552.8 L324 544.2 L352 530.1 L380 513.3 L408 497.0 L436 484.2 L464 477.4 L492 477.9 L520 485.6 L548 499.0 L576 515.6 L604 532.3 L632 545.7 L660 553.5 L688 554.0 L716 547.3 L744 534.6 L772 518.2 L800 501.4 L828 487.3" fill="none" stroke="#5fd0d4" stroke-width="2.5" stroke-linecap="round" opacity="0.64"/>
  <circle cx="169" cy="375" r="4" fill="#1f9aa0" opacity="0.5"/><circle cx="727" cy="329" r="2" fill="#1f9aa0" opacity="0.5"/><circle cx="337" cy="436" r="3" fill="#1f9aa0" opacity="0.5"/><circle cx="358" cy="435" r="2" fill="#1f9aa0" opacity="0.5"/><circle cx="734" cy="290" r="3" fill="#1f9aa0" opacity="0.5"/><circle cx="537" cy="410" r="3" fill="#1f9aa0" opacity="0.5"/>
</svg>