<svg width="512" height="512" viewBox="0 0 512 512" xmlns="http://www.w3.org/2000/svg">
  <defs><clipPath id="c"><circle cx="256" cy="256" r="170"/></clipPath></defs>
  <circle cx="256" cy="256" r="186" fill="none" stroke="#1f9aa0" stroke-width="20"/>
  <g clip-path="url(#c)" fill="none" stroke="#1f9aa0" stroke-width="16" stroke-linecap="round" stroke-linejoin="round">
    <path d="M64.0,220.00 L66.5,221.71 L69.0,223.42 L71.5,225.10 L74.0,226.76 L76.5,228.39 L79.0,229.97 L81.5,231.50 L84.0,232.98 L86.5,234.38 L89.0,235.72 L91.5,236.97 L94.0,238.14 L96.5,239.21 L99.0,240.19 L101.5,241.06 L104.0,241.83 L106.5,242.49 L109.0,243.03 L111.5,243.45 L114.0,243.76 L116.5,243.94 L119.0,244.00 L121.5,243.94 L124.0,243.76 L126.5,243.45 L129.0,243.03 L131.5,242.49 L134.0,241.83 L136.5,241.06 L139.0,240.19 L141.5,239.21 L144.0,238.14 L146.5,236.97 L149.0,235.72 L151.5,234.38 L154.0,232.98 L156.5,231.50 L159.0,229.97 L161.5,228.39 L164.0,226.76 L166.5,225.10 L169.0,223.42 L171.5,221.71 L174.0,220.00 L176.5,218.29 L179.0,216.58 L181.5,214.90 L184.0,213.24 L186.5,211.61 L189.0,210.03 L191.5,208.50 L194.0,207.02 L196.5,205.62 L199.0,204.28 L201.5,203.03 L204.0,201.86 L206.5,200.79 L209.0,199.81 L211.5,198.94 L214.0,198.17 L216.5,197.51 L219.0,196.97 L221.5,196.55 L224.0,196.24 L226.5,196.06 L229.0,196.00 L231.5,196.06 L234.0,196.24 L236.5,196.55 L239.0,196.97 L241.5,197.51 L244.0,198.17 L246.5,198.94 L249.0,199.81 L251.5,200.79 L254.0,201.86 L256.5,203.03 L259.0,204.28 L261.5,205.62 L264.0,207.02 L266.5,208.50 L269.0,210.03 L271.5,211.61 L274.0,213.24 L276.5,214.90 L279.0,216.58 L281.5,218.29 L284.0,220.00 L286.5,221.71 L289.0,223.42 L291.5,225.10 L294.0,226.76 L296.5,228.39 L299.0,229.97 L301.5,231.50 L304.0,232.98 L306.5,234.38 L309.0,235.72 L311.5,236.97 L314.0,238.14 L316.5,239.21 L319.0,240.19 L321.5,241.06 L324.0,241.83 L326.5,242.49 L329.0,243.03 L331.5,243.45 L334.0,243.76 L336.5,243.94 L339.0,244.00 L341.5,243.94 L344.0,243.76 L346.5,243.45 L349.0,243.03 L351.5,242.49 L354.0,241.83 L356.5,241.06 L359.0,240.19 L361.5,239.21 L364.0,238.14 L366.5,236.97 L369.0,235.72 L371.5,234.38 L374.0,232.98 L376.5,231.50 L379.0,229.97 L381.5,228.39 L384.0,226.76 L386.5,225.10 L389.0,223.42 L391.5,221.71 L394.0,220.00 L396.5,218.29 L399.0,216.58 L401.5,214.90 L404.0,213.24 L406.5,211.61 L409.0,210.03 L411.5,208.50 L414.0,207.02 L416.5,205.62 L419.0,204.28 L421.5,203.03 L424.0,201.86 L426.5,200.79 L429.0,199.81 L431.5,198.94 L434.0,198.17 L436.5,197.51 L439.0,196.97 L441.5,196.55 L444.0,196.24 L446.5,196.06"/>
    <path d="M64.0,292.00 L66.5,293.71 L69.0,295.42 L71.5,297.10 L74.0,298.76 L76.5,300.39 L79.0,301.97 L81.5,303.50 L84.0,304.98 L86.5,306.38 L89.0,307.72 L91.5,308.97 L94.0,310.14 L96.5,311.21 L99.0,312.19 L101.5,313.06 L104.0,313.83 L106.5,314.49 L109.0,315.03 L111.5,315.45 L114.0,315.76 L116.5,315.94 L119.0,316.00 L121.5,315.94 L124.0,315.76 L126.5,315.45 L129.0,315.03 L131.5,314.49 L134.0,313.83 L136.5,313.06 L139.0,312.19 L141.5,311.21 L144.0,310.14 L146.5,308.97 L149.0,307.72 L151.5,306.38 L154.0,304.98 L156.5,303.50 L159.0,301.97 L161.5,300.39 L164.0,298.76 L166.5,297.10 L169.0,295.42 L171.5,293.71 L174.0,292.00 L176.5,290.29 L179.0,288.58 L181.5,286.90 L184.0,285.24 L186.5,283.61 L189.0,282.03 L191.5,280.50 L194.0,279.02 L196.5,277.62 L199.0,276.28 L201.5,275.03 L204.0,273.86 L206.5,272.79 L209.0,271.81 L211.5,270.94 L214.0,270.17 L216.5,269.51 L219.0,268.97 L221.5,268.55 L224.0,268.24 L226.5,268.06 L229.0,268.00 L231.5,268.06 L234.0,268.24 L236.5,268.55 L239.0,268.97 L241.5,269.51 L244.0,270.17 L246.5,270.94 L249.0,271.81 L251.5,272.79 L254.0,273.86 L256.5,275.03 L259.0,276.28 L261.5,277.62 L264.0,279.02 L266.5,280.50 L269.0,282.03 L271.5,283.61 L274.0,285.24 L276.5,286.90 L279.0,288.58 L281.5,290.29 L284.0,292.00 L286.5,293.71 L289.0,295.42 L291.5,297.10 L294.0,298.76 L296.5,300.39 L299.0,301.97 L301.5,303.50 L304.0,304.98 L306.5,306.38 L309.0,307.72 L311.5,308.97 L314.0,310.14 L316.5,311.21 L319.0,312.19 L321.5,313.06 L324.0,313.83 L326.5,314.49 L329.0,315.03 L331.5,315.45 L334.0,315.76 L336.5,315.94 L339.0,316.00 L341.5,315.94 L344.0,315.76 L346.5,315.45 L349.0,315.03 L351.5,314.49 L354.0,313.83 L356.5,313.06 L359.0,312.19 L361.5,311.21 L364.0,310.14 L366.5,308.97 L369.0,307.72 L371.5,306.38 L374.0,304.98 L376.5,303.50 L379.0,301.97 L381.5,300.39 L384.0,298.76 L386.5,297.10 L389.0,295.42 L391.5,293.71 L394.0,292.00 L396.5,290.29 L399.0,288.58 L401.5,286.90 L404.0,285.24 L406.5,283.61 L409.0,282.03 L411.5,280.50 L414.0,279.02 L416.5,277.62 L419.0,276.28 L421.5,275.03 L424.0,273.86 L426.5,272.79 L429.0,271.81 L431.5,270.94 L434.0,270.17 L436.5,269.51 L439.0,268.97 L441.5,268.55 L444.0,268.24 L446.5,268.06"/>
  </g>
</svg>